<?xml version="1.0" encoding="utf-8"?>
<!-- Svg Vector Icons : http://www.onlinewebfonts.com/icon -->
<!DOCTYPE svg PUBLIC "-//W3C//DTD SVG 1.1//EN" "http://www.w3.org/Graphics/SVG/1.1/DTD/svg11.dtd">
<svg version="1.1" xmlns="http://www.w3.org/2000/svg" xmlns:xlink="http://www.w3.org/1999/xlink" x="0px" y="0px" viewBox="0 0 1000 1000" enable-background="new 0 0 1000 1000" xml:space="preserve">
<metadata> Svg Vector Icons : http://www.onlinewebfonts.com/icon </metadata>
<g><path d="M10,10L10,10L10,10z"/><path d="M886.8,164.7h-46.4v103.2H675.4V164.7H376.2v103.2H211.2V164.7h-46.4c-56.7,0-103.2,46.4-103.2,103.2v618.9C61.6,943.6,108,990,164.7,990h722.1c56.7,0,103.2-46.4,103.2-103.2V267.9C990,211.2,943.6,164.7,886.8,164.7z M886.8,886.8H164.7V474.2h722.1V886.8z M329.8,61.6h-72.2v175.4h72.2V61.6z M794,61.6h-72.2v175.4H794V61.6L794,61.6z"/></g>
</svg>