<?xml version="1.0" standalone="no"?>
<!DOCTYPE svg PUBLIC "-//W3C//DTD SVG 20010904//EN"
 "http://www.w3.org/TR/2001/REC-SVG-20010904/DTD/svg10.dtd">
<svg version="1.0" xmlns="http://www.w3.org/2000/svg"
 width="642.000000pt" height="642.000000pt" viewBox="0 0 642.000000 642.000000"
 preserveAspectRatio="xMidYMid meet">
<metadata>
Created by potrace 1.11, written by Peter Selinger 2001-2013
</metadata>
<g transform="translate(0.000000,642.000000) scale(0.100000,-0.100000)"
fill="#000000" stroke="none">
<path d="M2955 6344 c-16 -2 -77 -9 -135 -15 -143 -15 -378 -63 -519 -105
-401 -122 -733 -293 -1061 -548 -134 -104 -414 -381 -519 -515 -353 -447 -572
-959 -658 -1536 -25 -172 -25 -668 0 -840 84 -564 276 -1028 608 -1470 442
-587 1067 -998 1784 -1170 397 -96 864 -112 1269 -44 625 106 1207 401 1662
842 275 266 471 531 632 854 154 308 248 607 304 963 19 126 22 184 22 440 0
314 -8 406 -59 650 -98 464 -304 912 -589 1280 -454 588 -1088 988 -1821 1149
-214 47 -361 63 -630 66 -143 2 -273 1 -290 -1z m590 -50 c551 -59 1099 -275
1539 -609 290 -220 557 -511 756 -825 157 -247 298 -577 376 -880 69 -271 96
-491 96 -785 -1 -854 -344 -1649 -968 -2244 -983 -938 -2489 -1127 -3675 -460
-262 147 -455 294 -680 518 -273 274 -448 518 -610 856 -207 431 -302 853
-302 1340 0 353 46 643 152 965 411 1244 1542 2094 2851 2143 122 5 315 -3
465 -19z"/>
<path d="M2505 5901 c-138 -34 -241 -159 -266 -323 -29 -185 44 -319 199 -364
75 -22 223 -15 311 15 l64 22 23 -22 c25 -23 95 -36 139 -25 14 4 43 22 65 42
94 86 91 264 -6 325 -35 21 -112 26 -147 8 -68 -35 -117 -120 -117 -204 0 -31
-3 -33 -62 -50 -140 -41 -265 -16 -318 62 -22 33 -25 46 -25 132 1 78 5 105
23 146 29 63 65 102 117 126 55 26 91 24 121 -6 23 -23 24 -30 18 -85 -6 -58
-6 -60 21 -70 58 -22 95 21 95 110 0 127 -109 196 -255 161z m461 -409 c48
-32 42 -166 -8 -193 -27 -15 -64 11 -73 51 -18 84 33 174 81 142z"/>
<path d="M3206 5571 c-39 -43 -60 -267 -32 -336 12 -29 20 -35 44 -35 38 0 47
12 72 91 23 73 69 161 88 167 8 3 12 -11 12 -47 0 -42 4 -53 24 -66 32 -21 69
-11 102 27 30 37 30 87 -1 103 -16 8 -19 18 -17 48 4 47 -11 67 -50 67 -57 0
-106 -39 -152 -120 -30 -53 -31 -49 -10 32 8 33 13 67 10 74 -8 21 -70 17 -90
-5z"/>
<path d="M3655 5571 c-66 -40 -95 -100 -95 -193 0 -76 21 -123 69 -155 45 -30
112 -30 165 0 116 65 130 282 23 347 -42 26 -121 26 -162 1z m105 -91 c22 -22
28 -98 10 -144 -22 -60 -93 -50 -102 15 -10 68 22 149 59 149 7 0 22 -9 33
-20z"/>
<path d="M3335 4864 c-239 -59 -377 -117 -655 -277 -219 -125 -475 -302 -580
-401 -36 -34 -99 -90 -140 -126 -99 -87 -428 -400 -434 -414 -14 -33 -2 42 19
124 16 63 21 98 14 105 -7 7 -77 -57 -211 -193 -111 -111 -202 -202 -203 -202
-9 0 -185 447 -185 468 0 7 -8 12 -17 10 -14 -3 -21 -26 -35 -123 -9 -66 -17
-140 -17 -164 -1 -24 -8 -89 -16 -145 -8 -55 -18 -123 -21 -149 -7 -60 13 -63
-268 48 -232 91 -261 100 -272 84 -7 -11 182 -300 294 -449 36 -47 67 -91 69
-98 3 -7 -19 -45 -49 -85 -59 -78 -188 -273 -303 -456 -113 -181 -111 -198 16
-118 46 30 105 67 131 83 26 16 112 73 192 127 79 53 148 97 154 97 5 0 12
-116 16 -277 8 -335 10 -353 41 -353 30 0 48 23 80 105 77 200 117 303 127
328 15 39 21 40 72 16 l44 -22 6 -91 c7 -114 26 -616 26 -674 0 -36 -4 -44
-25 -54 -49 -22 -23 -108 33 -108 39 0 49 35 56 195 20 438 44 675 70 675 7 0
36 -7 64 -15 29 -9 138 -21 249 -28 l198 -12 6 -46 c4 -25 9 -86 10 -135 4
-85 3 -89 -17 -92 -33 -5 -45 -60 -18 -86 22 -22 41 -20 69 8 18 18 24 38 29
92 13 138 28 233 40 249 9 12 45 19 151 30 77 7 194 20 260 29 66 9 158 21
205 27 47 6 126 20 175 31 50 10 102 21 117 25 23 4 28 1 32 -18 8 -35 53
-414 66 -549 26 -269 38 -320 78 -320 23 0 62 41 62 65 0 30 -29 56 -51 45
-15 -9 -19 -5 -24 22 -3 18 -4 92 -1 163 2 72 4 243 5 382 l1 252 43 12 c65
17 127 39 187 65 30 13 109 44 175 70 118 45 313 139 368 177 16 11 32 16 36
11 4 -5 16 -70 25 -144 35 -268 43 -303 71 -327 31 -28 47 -29 68 -5 22 25 31
67 17 91 -13 25 -27 27 -52 5 -16 -16 -18 -15 -24 1 -9 23 2 405 13 432 4 12
38 43 74 70 106 77 135 120 159 236 9 45 9 70 0 107 -13 53 -65 140 -83 140
-7 0 -27 9 -46 21 l-34 21 90 91 c126 129 293 316 316 355 21 35 23 36 152 52
149 19 350 59 417 84 77 29 222 93 314 139 166 84 373 277 441 412 12 22 28
65 37 95 25 83 22 84 -188 88 -155 3 -186 1 -302 -23 -195 -39 -278 -69 -499
-180 -77 -38 -143 -71 -147 -73 -4 -2 -13 17 -19 43 -6 26 -24 59 -40 75 -28
28 -104 60 -142 60 -19 0 -19 1 -3 19 23 25 13 45 -15 31 -17 -10 -19 -7 -19
20 0 38 -25 41 -34 4 -6 -24 -11 -26 -41 -21 -29 5 -35 3 -35 -12 0 -10 7 -24
15 -31 24 -20 18 -29 -22 -35 -109 -18 -241 -59 -353 -108 -108 -48 -131 -55
-168 -50 -32 4 -42 10 -42 24 0 30 -28 22 -32 -8 -2 -19 -10 -29 -28 -33 -28
-7 -41 -40 -16 -40 31 0 15 -19 -36 -43 -117 -54 -152 -55 -179 -5 -17 32 12
158 71 308 25 64 26 121 1 151 -17 21 -28 23 -112 25 -52 2 -103 1 -114 -2z
m167 -52 c20 -20 12 -94 -26 -211 -54 -169 -46 -255 25 -280 46 -16 62 -14
129 14 71 30 73 30 61 6 -9 -17 -125 -66 -231 -98 -61 -18 -103 -3 -90 33 12
32 -6 41 -28 14 -11 -14 -23 -19 -35 -15 -23 9 -22 12 18 104 39 88 44 143 20
212 -12 34 -13 44 -3 51 18 11 24 10 38 -7 11 -14 40 -21 40 -10 0 2 -5 16
-12 30 -10 23 -10 28 5 36 23 13 22 39 -2 39 -13 0 -21 8 -23 22 -4 30 -34 35
-41 8 -3 -14 -13 -20 -31 -20 -26 0 -35 -13 -16 -25 13 -8 13 -45 0 -45 -6 0
-22 7 -36 16 -20 14 -41 16 -104 11 -77 -5 -101 5 -40 17 17 3 44 9 60 12 17
3 30 10 30 16 0 17 33 37 62 38 15 0 30 5 33 10 3 6 15 10 26 10 11 0 22 7 26
16 5 13 18 15 69 12 35 -2 69 -9 76 -16z m-266 -191 c91 -41 105 -110 49 -245
-37 -90 -41 -118 -25 -162 8 -19 7 -30 -1 -41 -9 -10 -9 -17 -1 -25 9 -9 17
-7 32 7 23 21 27 19 32 -15 3 -22 -1 -25 -33 -28 -31 -3 -41 2 -64 30 l-28 33
7 136 7 137 -30 25 c-44 36 -95 50 -156 43 -48 -5 -53 -4 -48 12 6 23 106 47
134 32 24 -13 79 -13 79 0 0 11 -7 14 -52 24 -16 4 -28 13 -28 21 0 9 10 15
28 16 l27 1 -30 8 c-27 7 -26 8 15 9 25 0 63 -8 86 -18z m2294 9 c36 0 71 -4
79 -9 27 -17 -15 -64 -174 -194 -237 -193 -414 -281 -704 -348 -69 -16 -131
-29 -137 -29 -7 0 7 46 32 108 24 59 51 138 61 176 l18 69 159 78 c87 43 202
92 255 108 98 31 248 52 311 45 19 -2 64 -4 100 -4z m-2453 -6 c-3 -3 -12 -4
-19 -1 -8 3 -5 6 6 6 11 1 17 -2 13 -5z m1483 -25 c0 -5 4 -7 10 -4 6 3 7 -1
4 -9 -3 -9 -1 -16 5 -16 6 0 11 6 11 12 0 27 51 -40 56 -74 l6 -35 -76 -43
-77 -42 -48 49 c-51 51 -104 73 -182 73 -24 0 -47 7 -57 16 -15 15 -14 16 7 9
15 -4 21 -3 17 3 -8 13 17 22 65 22 27 0 39 -4 39 -14 0 -23 20 -30 33 -12 9
12 21 14 47 8 19 -4 55 -5 80 -2 43 5 45 6 44 38 -1 17 3 32 7 32 5 0 9 -5 9
-11z m-1694 -84 c-11 -8 -27 -15 -35 -15 -11 0 -10 4 5 15 10 8 26 14 34 14
11 0 10 -3 -4 -14z m1319 5 c-3 -5 0 -10 7 -10 21 0 -14 -20 -36 -20 -18 0
-18 1 -1 20 19 20 41 28 30 10z m-215 -40 c0 -5 -10 -10 -22 -9 -22 0 -22 1
-3 9 11 5 21 9 23 9 1 1 2 -3 2 -9z m-990 -20 c0 -5 -5 -10 -11 -10 -5 0 -7 5
-4 10 3 6 8 10 11 10 2 0 4 -4 4 -10z m1070 0 c-20 -13 -33 -13 -25 0 3 6 14
10 23 10 15 0 15 -2 2 -10z m-1030 -12 c0 -7 -4 -19 -9 -27 -8 -12 -12 -13
-25 -2 -12 11 -14 17 -5 27 14 17 39 18 39 2z m1395 -40 c41 -45 38 -55 -24
-89 -20 -10 -44 -25 -54 -32 -15 -10 -21 -8 -40 15 -25 31 -83 58 -123 58 -26
0 -26 1 -10 19 11 12 25 16 43 13 18 -3 30 1 39 13 18 25 84 52 111 47 13 -2
39 -22 58 -44z m-1289 28 c17 -13 19 -27 19 -143 0 -148 13 -185 78 -216 31
-16 45 -17 89 -8 29 5 71 7 93 2 l40 -7 -35 -11 c-19 -6 -69 -14 -110 -17 -41
-4 -108 -12 -149 -18 -72 -11 -75 -11 -93 11 -14 19 -17 33 -12 76 8 62 -8
118 -39 140 -38 27 -163 15 -292 -27 -122 -41 -148 -47 -137 -36 7 7 18 13 25
14 7 1 38 10 69 19 52 17 57 21 60 49 2 22 9 32 23 35 11 2 22 6 25 10 15 19
48 29 59 18 8 -8 11 -3 11 20 0 18 5 35 10 38 6 3 10 -1 10 -9 0 -9 2 -16 5
-16 12 0 45 36 45 49 0 10 10 5 30 -14 l30 -29 -20 -33 c-33 -57 -21 -70 30
-33 l29 20 12 -35 c19 -52 40 -46 33 9 -6 40 -4 46 20 61 33 22 34 45 1 45
-20 0 -25 5 -25 25 0 19 5 25 23 25 13 0 32 -6 43 -14z m734 -1 c0 -2 -10 -9
-22 -15 -22 -11 -22 -10 -4 4 21 17 26 19 26 11z m76 -14 c-3 -5 -16 -11 -28
-14 -22 -6 -22 -5 -4 8 22 17 40 20 32 6z m709 -108 c-17 -70 -71 -208 -97
-245 -12 -18 -33 -30 -61 -36 -23 -5 -43 -8 -45 -7 -1 1 11 33 27 72 16 39 34
101 41 140 l13 70 61 31 c33 18 64 32 68 32 3 0 0 -26 -7 -57z m-431 -39 c25
-4 46 -12 46 -18 0 -11 -83 -66 -99 -66 -13 0 -32 51 -26 71 7 21 12 22 79 13z
m-569 -16 c-11 -6 -22 -15 -25 -19 -7 -11 -101 -59 -115 -59 -5 0 -21 -6 -36
-13 -20 -11 -116 -47 -125 -47 -1 0 1 12 5 26 6 23 18 30 96 54 50 16 115 37
145 48 63 23 84 26 55 10z m831 -15 c-11 -50 -67 -188 -84 -209 -9 -12 -33
-24 -53 -27 l-36 -5 14 51 c7 28 16 72 19 99 6 46 10 50 63 83 71 42 85 44 77
8z m-394 -47 c28 -34 21 -50 -35 -89 -63 -43 -70 -44 -86 -14 -20 37 -60 59
-120 68 l-56 7 60 -4 c106 -7 109 -7 124 15 7 12 22 21 33 21 10 0 21 6 24 14
7 18 33 10 56 -18z m-1130 4 c45 -13 58 -34 58 -94 0 -24 5 -57 10 -72 13 -34
1 -44 -57 -44 -107 0 -588 -118 -697 -171 -22 -10 -45 -19 -50 -19 -6 0 -56
-22 -112 -48 -90 -43 -154 -79 -356 -199 -31 -18 -96 -63 -145 -99 l-88 -65
105 101 c125 120 244 223 360 311 167 127 426 279 480 284 16 1 40 9 53 18 22
14 25 14 46 -6 l21 -21 0 25 c0 22 8 29 43 42 56 21 193 56 237 60 19 2 40 4
45 5 6 1 27 -3 47 -8z m812 -29 c7 -10 -17 -21 -46 -21 -17 0 -18 3 -8 15 14
17 46 20 54 6z m509 -112 l-18 -54 -49 -3 c-27 -2 -53 1 -57 5 -5 5 -4 25 2
46 8 30 22 45 72 77 l62 39 3 -28 c2 -15 -5 -52 -15 -82z m-1813 76 c-33 -19
-46 -19 -30 0 7 8 22 15 34 15 20 -1 20 -2 -4 -15z m1105 -23 c-15 -13 -94
-36 -101 -29 -4 3 9 13 27 21 37 16 89 21 74 8z m330 -22 c30 -19 51 -47 41
-57 -2 -2 -97 -1 -211 3 -229 8 -237 13 -79 53 141 36 193 36 249 1z m-1525 5
c-14 -7 -27 -11 -30 -9 -6 7 22 24 40 23 9 0 5 -6 -10 -14z m1738 -62 c-3 -19
-48 -32 -48 -14 0 10 28 30 43 31 5 0 7 -8 5 -17z m-289 -97 c-2 -2 -36 -31
-75 -63 -142 -117 -264 -225 -264 -234 0 -5 6 -9 14 -9 20 0 264 165 361 243
44 36 81 64 83 62 19 -18 -166 -222 -301 -331 -88 -70 -80 -68 -302 -79 -188
-9 -415 -46 -555 -90 -257 -81 -490 -189 -490 -226 0 -5 9 -13 20 -19 17 -9
32 -4 83 24 153 85 475 195 647 220 146 22 284 36 355 35 71 0 92 19 -180
-166 -292 -199 -388 -252 -895 -501 -187 -92 -211 -107 -182 -110 37 -4 39 -9
15 -29 -16 -12 -14 -13 19 -11 61 4 54 -10 -9 -17 -32 -3 -89 -10 -128 -15
-38 -5 -150 -12 -247 -16 l-177 -7 -14 34 c-7 19 -38 105 -67 191 l-53 157 29
26 c25 22 68 52 259 178 22 15 71 49 110 77 38 27 76 50 82 50 21 0 15 27 -11
47 -22 18 -31 18 -152 7 -216 -21 -224 -18 -99 42 41 19 133 68 205 109 185
106 295 160 444 217 141 54 279 93 366 103 30 4 69 11 85 16 72 22 420 61 665
75 63 4 117 8 119 10 6 5 245 5 240 0z m251 -6 c0 -22 -52 -111 -96 -167 -26
-32 -87 -100 -138 -150 -99 -101 -107 -105 -190 -80 l-40 12 50 36 c169 122
299 251 325 324 12 32 17 35 51 35 21 0 38 -5 38 -10z m118 -6 l31 -6 -30 -59
c-30 -60 -49 -75 -49 -39 0 28 -19 25 -30 -5 -10 -27 -13 -28 -46 -19 -21 6
-20 7 15 70 38 67 45 71 109 58z m116 -51 c-51 -89 -124 -193 -198 -280 -94
-114 -99 -118 -136 -107 l-30 9 52 61 c29 33 70 80 90 105 35 41 39 43 51 27
21 -27 27 -22 27 20 0 26 7 45 20 57 11 10 20 25 20 33 0 8 14 39 31 68 28 49
34 54 66 54 l35 0 -28 -47z m144 38 c-6 -18 -322 -373 -367 -412 -61 -54 -64
-40 -5 23 90 96 173 207 251 335 37 61 39 63 81 63 24 0 42 -4 40 -9z m-374
-186 c-13 -41 -55 -102 -114 -163 l-60 -64 -53 7 c-28 4 -54 9 -56 11 -3 2 27
37 67 77 39 39 92 97 118 128 l46 57 29 -17 c22 -12 27 -21 23 -36z m-412
-253 c13 -5 -5 -22 -78 -72 -122 -84 -235 -158 -253 -167 -8 -3 -53 -30 -102
-59 -48 -29 -109 -60 -135 -69 -26 -9 -58 -25 -72 -35 -29 -24 -42 -25 -42 -6
0 8 13 17 29 21 32 7 58 31 47 42 -4 4 -15 2 -24 -5 -9 -6 -32 -19 -51 -28
-18 -10 -48 -32 -65 -50 -25 -25 -35 -31 -44 -22 -9 9 -1 18 31 40 23 15 47
28 54 28 7 0 16 6 20 13 4 7 62 49 128 93 66 45 184 124 262 177 89 59 155 97
175 100 54 6 102 6 120 -1z m158 -11 c23 -6 21 -9 -35 -52 -91 -70 -407 -281
-412 -275 -3 2 0 14 7 25 9 18 8 21 -10 21 -11 0 -23 -7 -26 -15 -4 -8 -13
-15 -21 -15 -8 0 -32 -13 -53 -30 -21 -16 -48 -30 -61 -30 l-23 0 20 21 c12
11 61 45 110 75 83 50 89 53 96 34 4 -11 10 -20 12 -20 17 0 117 88 149 130
20 27 63 70 95 95 58 46 89 53 152 36z m114 -36 c0 -5 -34 -38 -75 -72 -40
-34 -94 -82 -119 -106 -43 -42 -187 -145 -233 -167 -21 -10 -21 -10 1 7 13 10
47 40 75 66 28 27 67 62 86 79 32 26 33 29 11 23 -14 -4 -48 -22 -76 -40 -28
-18 -60 -35 -71 -39 -11 -4 -28 -15 -38 -26 -10 -11 -25 -20 -33 -20 -18 0
-80 -44 -103 -73 -9 -11 -23 -18 -31 -15 -17 7 -43 -12 -43 -32 0 -8 -8 -16
-19 -18 -11 -3 -16 0 -12 7 4 6 3 11 -2 11 -5 0 -12 -9 -15 -21 -4 -16 -11
-19 -26 -14 -14 4 -24 0 -33 -14 -7 -12 -17 -21 -21 -21 -5 0 -20 -9 -34 -20
-14 -11 -38 -20 -52 -20 -15 0 -32 -5 -39 -12 -6 -6 -14 -9 -17 -6 -3 3 23 20
57 38 176 93 603 368 730 469 52 42 69 50 98 48 19 -1 35 -6 34 -12z m46 -12
c-1 -5 -22 -23 -48 -42 l-47 -34 40 42 c37 39 55 50 55 34z m94 -28 c20 -8 36
-20 36 -26 0 -6 7 -17 15 -25 20 -21 19 -35 -7 -74 -61 -89 -361 -238 -644
-319 -54 -16 -144 -42 -199 -59 -55 -17 -101 -29 -102 -28 -2 2 63 39 144 83
82 45 180 101 218 126 133 87 298 201 388 269 50 37 96 68 103 68 6 0 28 -7
48 -15z m-194 -49 c0 -2 -8 -10 -17 -17 -16 -13 -17 -12 -4 4 13 16 21 21 21
13z m300 -47 c0 -5 -4 -9 -10 -9 -5 0 -10 7 -10 16 0 8 5 12 10 9 6 -3 10 -10
10 -16z m0 -76 c0 -5 -4 -14 -9 -21 -7 -12 -12 -12 -30 -1 -29 19 -26 29 9 29
17 0 30 -3 30 -7z m-87 -82 l28 -18 -23 -15 c-22 -14 -26 -14 -53 8 -25 20
-28 26 -15 34 21 14 31 12 63 -9z m-768 -29 c-6 -5 -28 -19 -50 -31 l-40 -23
35 31 c19 17 42 31 50 31 8 0 10 -3 5 -8z m692 -16 c28 -24 28 -25 8 -40 -27
-20 -44 -20 -52 2 -4 9 -13 21 -20 25 -11 7 -11 12 -2 23 17 20 34 17 66 -10z
m-831 -15 c-6 -9 -169 -91 -230 -116 -62 -25 -36 -7 97 66 108 59 148 74 133
50z m39 -30 c-6 -11 -65 -42 -65 -35 0 4 62 44 68 44 2 0 1 -4 -3 -9z m674
-17 c14 -18 27 -25 41 -21 28 7 15 -10 -21 -28 -27 -15 -30 -14 -35 2 -3 10
-12 30 -20 46 -13 24 -13 27 0 27 8 0 24 -12 35 -26z m-474 6 c-3 -5 -12 -10
-18 -10 -7 0 -6 4 3 10 19 12 23 12 15 0z m-593 -20 c-12 -11 -26 -20 -32 -20
-6 0 -13 -6 -16 -14 -6 -16 -55 -37 -91 -40 -32 -2 -19 7 72 53 92 47 96 48
67 21z m967 -36 c11 -32 16 -35 39 -30 l27 7 -25 -21 c-14 -11 -28 -20 -32
-20 -13 0 -59 80 -53 90 12 20 31 9 44 -26z m-453 11 c-11 -8 -27 -15 -35 -15
-11 0 -10 4 5 15 10 8 26 14 34 14 11 0 10 -3 -4 -14z m401 -50 c21 -37 21
-41 6 -52 -27 -21 -37 -15 -61 34 -18 36 -20 48 -10 55 23 14 42 4 65 -37z
m-458 21 c-2 -2 -15 -9 -29 -15 -24 -11 -24 -11 -6 3 16 13 49 24 35 12z
m-409 -46 c-19 -17 -40 -30 -47 -30 -7 0 -13 -4 -13 -9 0 -11 -59 -26 -67 -18
-4 5 144 86 157 86 3 0 -11 -13 -30 -29z m750 -10 c11 -22 27 -40 35 -40 22 0
18 -18 -6 -30 -29 -16 -49 -5 -49 25 0 14 -7 39 -15 55 -14 27 -14 30 0 30 8
0 24 -18 35 -40z m-990 10 c-14 -11 -30 -20 -35 -20 -15 0 -87 -39 -110 -60
-11 -10 -25 -15 -32 -13 -6 2 -37 -10 -67 -26 -30 -17 -63 -31 -73 -30 -10 0
25 21 77 45 52 25 129 63 170 83 84 43 107 50 70 21z m891 -31 c7 -23 20 -44
28 -47 15 -5 31 -21 31 -32 0 -12 -64 -30 -74 -20 -11 11 -27 120 -20 132 11
18 24 6 35 -33z m-589 -1 c-8 -8 -9 -15 -1 -25 9 -10 8 -13 -4 -13 -22 0 -29
28 -9 39 23 14 28 13 14 -1z m213 0 c-11 -6 -31 -20 -45 -32 -30 -26 -158 -67
-295 -95 -182 -36 -320 -63 -340 -66 -11 -2 -67 -10 -124 -19 -124 -19 -123
-19 -91 -2 14 8 61 19 105 26 44 6 105 16 135 21 30 6 69 12 85 15 17 3 85 19
151 35 67 16 148 33 180 38 91 15 154 32 154 42 0 10 68 46 90 48 10 0 8 -3
-5 -11z m274 -45 c9 -32 17 -43 31 -43 32 0 25 -36 -10 -48 -34 -12 -34 -13
-60 64 -24 70 -24 72 -2 77 22 5 26 0 41 -50z m-70 -35 c12 -34 21 -65 21 -69
0 -10 -58 -32 -68 -25 -16 10 -25 138 -10 147 26 17 37 8 57 -53z m-629 47 c0
-6 -105 -55 -117 -55 -9 1 98 59 110 60 4 0 7 -2 7 -5z m498 -56 c6 -50 13
-69 26 -69 8 0 16 -6 19 -14 6 -15 -12 -26 -45 -26 -17 0 -20 5 -15 28 3 15 2
46 -3 70 -5 30 -4 42 4 39 6 -2 12 -14 14 -28z m-87 -39 c3 -23 13 -48 22 -55
23 -17 21 -32 -5 -39 -42 -11 -46 -6 -58 61 -9 53 -9 68 2 74 22 15 33 4 39
-41z m-67 -57 l7 -63 -31 0 c-30 0 -40 13 -20 25 6 4 9 14 6 23 -17 62 -16 90
1 94 24 5 29 -6 37 -79z m-120 25 c3 -13 6 -33 6 -46 0 -12 7 -25 15 -28 33
-13 6 -43 -40 -44 -6 0 -10 30 -11 70 0 48 4 70 12 70 6 0 14 -10 18 -22z
m-1600 -55 c75 -36 134 -68 132 -70 -1 -2 -57 1 -123 6 -85 6 -130 14 -151 26
l-30 18 16 44 c9 23 17 43 18 43 2 0 64 -30 138 -67z m1500 41 c3 -9 6 -31 6
-50 0 -22 6 -37 15 -40 8 -4 15 -10 15 -15 0 -10 -50 -32 -57 -26 -6 6 -10
136 -5 142 10 9 20 5 26 -11z m-90 -64 c4 -27 11 -50 16 -50 6 0 10 -7 10 -15
0 -13 -65 -33 -75 -23 -2 2 -7 34 -11 70 -6 64 -6 66 17 70 34 6 36 4 43 -52z
m-101 33 c3 -5 6 -37 8 -72 4 -63 4 -64 -24 -72 -32 -9 -48 11 -28 35 8 10 9
26 2 57 -14 60 -14 59 13 59 14 0 27 -3 29 -7z m-118 -68 c5 -37 12 -55 21
-55 8 0 14 -9 14 -20 0 -17 -7 -20 -38 -20 l-38 0 0 68 c0 60 8 81 28 82 4 0
10 -25 13 -55z m-111 19 c3 -9 6 -30 6 -49 0 -18 7 -38 15 -45 13 -11 13 -15
3 -21 -21 -14 -55 -10 -62 7 -8 21 -8 109 1 117 11 12 31 7 37 -9z m-74 -64
c0 -68 -1 -70 -25 -71 -14 -1 -30 -2 -37 -3 -18 -2 -20 20 -3 37 8 9 15 33 15
55 0 23 5 43 13 45 33 14 37 7 37 -63z m-128 6 c-2 -20 1 -43 7 -49 14 -17 1
-34 -32 -42 -21 -6 -27 -4 -27 8 0 9 5 19 10 22 6 3 10 25 10 49 0 23 3 46 7
50 16 15 28 -3 25 -38z m-90 -68 c21 -12 -12 -38 -48 -38 -38 0 -40 5 -19 46
8 16 15 37 15 46 0 9 8 24 18 34 16 17 17 15 20 -31 2 -27 8 -53 14 -57z
m-942 52 c-12 -17 -30 -30 -43 -30 -19 0 -19 2 8 30 16 17 35 30 43 30 10 0 8
-8 -8 -30z m818 -35 l0 -65 -34 0 c-38 0 -37 -2 -23 60 11 48 25 70 44 70 9 0
13 -20 13 -65z m-233 19 c-8 -20 -12 -40 -9 -45 12 -21 -17 -49 -51 -49 -36 0
-49 22 -20 34 8 3 15 14 15 24 0 24 44 72 65 72 14 0 14 -4 0 -36z m150 19
c-3 -10 -9 -31 -12 -48 -11 -56 -20 -65 -68 -65 -50 0 -54 6 -25 40 11 13 20
27 20 31 0 4 4 19 10 33 8 21 16 26 46 26 30 0 35 -3 29 -17z m-625 -2 c0 -6
-4 -13 -10 -16 -5 -3 -10 -15 -10 -26 0 -12 -7 -19 -20 -19 -20 0 -20 1 2 35
22 34 38 45 38 26z m93 -35 c-11 -21 -25 -36 -37 -36 -20 0 -17 7 28 57 27 31
30 23 9 -21z m167 36 c0 -20 -61 -92 -78 -91 -21 1 -62 17 -45 18 7 1 23 19
35 41 19 34 28 40 56 40 17 0 32 -4 32 -8z m100 -2 c0 -6 -4 -18 -9 -28 -6 -9
-12 -29 -16 -44 -5 -25 -10 -28 -46 -28 l-41 0 19 33 c42 70 49 77 70 77 13 0
23 -5 23 -10z"/>
<path d="M4320 4374 c0 -8 5 -12 10 -9 6 4 8 11 5 16 -9 14 -15 11 -15 -7z"/>
<path d="M3670 3380 c-8 -5 -12 -11 -9 -14 2 -3 11 -1 19 4 8 5 12 11 9 14 -2
3 -11 1 -19 -4z"/>
<path d="M5261 2225 c-49 -45 -96 -153 -121 -280 -60 -299 -14 -465 128 -465
75 0 122 37 122 95 0 35 -18 39 -63 16 -44 -22 -75 -17 -89 15 -9 20 -5 32 30
86 60 92 129 243 148 323 20 86 14 177 -14 214 -14 19 -30 27 -60 29 -35 3
-46 -2 -81 -33z m79 -112 c0 -30 -7 -83 -16 -117 -17 -66 -91 -232 -100 -224
-17 18 44 324 76 376 27 44 40 32 40 -35z"/>
<path d="M3542 2180 c-64 -13 -159 -68 -198 -114 -47 -54 -100 -166 -114 -243
-7 -34 -11 -109 -8 -170 3 -96 7 -114 32 -161 45 -80 128 -120 195 -92 44 18
60 50 82 163 10 56 21 112 24 123 4 17 15 23 52 28 102 13 197 79 234 161 22
48 25 142 5 188 -17 41 -61 82 -109 102 -47 19 -139 27 -195 15z m122 -104
c47 -19 66 -51 66 -109 0 -87 -47 -147 -127 -163 l-30 -6 16 95 c17 110 11
127 -44 127 -46 0 -61 -23 -80 -127 l-17 -92 -36 -3 c-34 -3 -37 -6 -40 -36
-3 -29 0 -35 28 -45 31 -12 31 -13 25 -57 -11 -71 -25 -134 -35 -149 -7 -12
-11 -13 -25 -1 -41 34 -58 125 -45 238 21 182 85 288 199 328 48 17 104 17
145 0z"/>
<path d="M3980 2053 c-53 -20 -69 -89 -28 -117 52 -37 128 -2 128 59 0 18 -6
38 -13 44 -17 14 -67 22 -87 14z"/>
<path d="M3931 1856 c-13 -16 -46 -178 -56 -279 -5 -48 -4 -71 5 -82 15 -18
74 -20 88 -2 6 7 16 52 22 101 6 48 18 124 26 168 8 44 13 87 10 94 -7 18 -80
18 -95 0z"/>
<path d="M4158 1849 c-132 -69 -141 -290 -16 -355 35 -18 121 -18 157 1 46 23
81 72 81 111 0 50 -24 54 -64 11 -59 -65 -126 -60 -145 10 -14 51 1 112 34
141 32 27 49 19 41 -19 -8 -40 2 -59 29 -59 67 0 87 113 28 160 -33 26 -95 26
-145 -1z"/>
<path d="M4495 1851 c-76 -45 -109 -117 -103 -217 7 -108 64 -158 173 -152 75
4 119 33 145 92 l17 41 7 -31 c4 -17 22 -46 41 -64 27 -26 45 -34 84 -38 64
-6 103 10 146 60 78 92 68 254 -20 308 -34 21 -106 27 -147 11 -63 -24 -118
-120 -118 -205 0 -37 -1 -38 -14 -21 -13 19 -16 18 -60 -23 -80 -74 -146 -48
-146 58 0 48 22 95 50 110 23 12 28 6 32 -50 3 -30 7 -35 30 -38 57 -7 81 100
33 152 -19 21 -33 26 -72 26 -29 0 -60 -7 -78 -19z m429 -87 c48 -47 18 -194
-39 -194 -24 0 -55 50 -55 91 0 89 52 146 94 103z"/>
<path d="M5505 1851 c-17 -10 -43 -32 -58 -50 -75 -89 -57 -254 33 -302 46
-25 134 -25 180 0 61 32 94 99 66 136 -14 19 -15 18 -60 -23 -49 -45 -94 -55
-131 -28 -17 12 -14 15 34 31 64 21 118 72 127 119 8 45 -11 100 -41 120 -33
22 -113 20 -150 -3z m95 -101 c0 -30 -21 -53 -63 -69 -26 -10 -27 -9 -27 20 0
20 10 40 29 60 35 34 61 30 61 -11z"/>
<path d="M2225 1391 c-58 -16 -84 -30 -125 -67 -74 -67 -93 -130 -106 -356
l-6 -108 -28 0 c-100 0 -160 -97 -94 -149 49 -39 171 -17 190 34 8 20 12 20
114 -20 112 -44 192 -47 262 -12 l46 23 20 -23 c29 -33 81 -31 114 5 14 15 28
34 31 42 3 10 6 7 6 -8 2 -42 19 -62 54 -62 55 0 59 8 70 137 6 65 11 147 11
183 l1 65 -35 0 c-39 0 -43 -6 -86 -129 -15 -44 -40 -93 -55 -110 -25 -28 -28
-29 -35 -12 -4 10 3 68 15 128 11 60 19 114 16 119 -4 5 -22 9 -40 9 -26 0
-39 -6 -51 -25 -19 -30 -44 -125 -44 -172 0 -22 -8 -38 -25 -51 -43 -34 -87
-36 -221 -6 l-124 27 5 31 c3 17 12 91 20 164 21 189 51 238 149 249 38 5 48
2 71 -21 24 -24 26 -30 19 -86 -6 -57 -6 -60 20 -71 20 -9 32 -9 51 -1 32 15
45 49 45 116 0 62 -26 109 -78 139 -36 21 -131 31 -177 18z"/>
<path d="M3273 1260 c-76 -31 -58 -130 23 -130 65 0 109 75 67 113 -24 21 -63
28 -90 17z"/>
<path d="M2928 1051 c-62 -40 -93 -103 -93 -193 0 -74 16 -105 75 -145 39 -27
125 -31 169 -8 45 23 81 72 81 110 0 47 -23 51 -64 10 -83 -83 -168 -39 -149
78 7 46 37 87 64 87 17 0 19 -6 17 -42 -3 -42 -2 -43 29 -46 29 -3 35 1 49 31
11 24 15 46 10 70 -15 79 -104 101 -188 48z"/>
<path d="M3225 1057 c-19 -30 -57 -252 -53 -314 l3 -48 45 0 c54 0 49 -11 83
205 16 102 21 159 14 168 -17 21 -75 15 -92 -11z"/>
</g>
</svg>
